<?xml version="1.0" encoding="UTF-8"?><svg id="Layer_2" xmlns="http://www.w3.org/2000/svg" viewBox="0 0 120.88 120.88"><defs><style>.cls-1{stroke:#ccc;stroke-miterlimit:10;stroke-width:4px;}.cls-1,.cls-2{fill:none;}.cls-3{fill:#ccc;}</style></defs><g id="Layer_1-2"><g><g id="Ellipse_7-2"><circle class="cls-2" cx="60.44" cy="60.44" r="60.44"/><circle class="cls-2" cx="60.44" cy="60.44" r="59.9"/></g><g><path id="Polygon_1" class="cls-3" d="M73.13,57.3v-19.23s18.03,9.61,18.03,9.61l-18.03,9.61Z"/><path id="Polygon_1-2" class="cls-3" d="M73.13,84.81v-19.23s18.03,9.61,18.03,9.61l-18.03,9.61Z"/><path class="cls-1" d="M83.21,47.68h-16.94c-1.1,0-2.1,.59-2.64,1.55l-13.59,24.41c-.53,.96-1.55,1.56-2.65,1.56h-15.67"/><g><path class="cls-3" d="M56.96,55.29l-3.92-7.04c-.88-1.58-2.55-2.56-4.36-2.56H31.73v4h16.95c.36,0,.69,.2,.87,.51l5.12,9.2,2.29-4.1Z"/><path class="cls-3" d="M67.52,73.2c-.36,0-.69-.2-.87-.51l-6.37-11.43-2.29,4.1,5.16,9.27c.88,1.58,2.55,2.57,4.36,2.57h15.69v-4h-15.69Z"/></g></g></g></g></svg>